<svg aria-hidden="true" style="width:0;height:0;position:absolute;overflow:hidden" xmlns="http://www.w3.org/2000/svg"><defs><symbol id="icon-Logo" viewBox="0 0 39 32"><path d="m22.215 9.64-.73-.571a.546.546 0 0 0-.78.08L10.608 21.046l.156.177 2.501-2.366a.399.399 0 0 1-.097-.673.38.38 0 0 1 .609.187l3.297-3.137a.281.281 0 0 1 .356 0l.167.126a.272.272 0 0 0 .373-.045l4.31-4.96a.485.485 0 0 0-.068-.713z"/><path d="M26.959 12.989a22.264 22.264 0 0 1-7.306 3.514 38.657 38.657 0 0 1-7.947 1.211c.054.406.151.804.29 1.189 1.515 1.406 12.92-.994 15.148-3.771.473-.577-.184-2.143-.184-2.143zm-13.543 5.868a.384.384 0 0 1-.349-.24.4.4 0 0 1 .082-.423.376.376 0 0 1 .413-.084.393.393 0 0 1 .234.359.387.387 0 0 1-.233.361.365.365 0 0 1-.146.028zM2.639 12.166l.089-.394 1.448.337c.119.226.193.475.217.731.028.271.011.546-.05.811a2.161 2.161 0 0 1-.479.994c-.23.267-.526.464-.858.571a1.982 1.982 0 0 1-1.053.04 1.93 1.93 0 0 1-.93-.503 1.9 1.9 0 0 1-.529-.897c-.1-.374-.1-.769 0-1.143.06-.28.167-.547.317-.789.142-.22.333-.402.557-.531l.2.314c-.192.121-.357.282-.483.473s-.213.408-.252.635c-.069.296-.063.604.017.897.075.278.223.529.429.726.211.21.476.354.763.417.279.08.573.08.852 0 .267-.09.507-.25.696-.463.195-.23.329-.507.39-.806a1.793 1.793 0 0 0-.067-1.091l-1.275-.331zM5.792 8.572l-1.298 1.777.557 1.023-.256.354-2.061-3.857.239-.337 4.193.926-.262.354-1.114-.24zm-.368-.092-2.228-.514 1.114 2.051L5.424 8.48zM5.424 4.886l.334-.257L7.88 7.543 9.629 6.2l.212.291-2.077 1.594-2.339-3.2zM8.932 2.503l.373-.171 1.47 3.303 1.988-.926.145.331-2.361 1.103-1.615-3.64zM16.272 3.817l.084.36-2.684.646-.891-3.897 2.606-.623.078.354-2.228.531.317 1.383 1.96-.474.084.354-1.966.469.334 1.446 2.306-.549zM20.098 3.96l-.93-1.257a2.706 2.706 0 0 1-.312 0l-1.047.034.039 1.269h-.412l-.128-4L18.789 0c.419-.04.838.076 1.181.326.145.119.261.271.34.443s.119.361.117.551c.016.282-.056.563-.206.8-.16.228-.386.398-.646.486l.975 1.337-.451.017zm-.39-1.88a.912.912 0 0 0 .284-.748.942.942 0 0 0-.328-.732 1.324 1.324 0 0 0-.874-.234l-1.058.04.067 2 1.036-.034c.316.012.626-.091.874-.291zM23.044 2.897l-.201 1.366-.407-.063.206-1.343L21.489 0l.434.069.986 2.434L24.58.486l.39.086-1.927 2.326zM28.552 2.657l.485.646-.212.171-.485-.663-.306.749-.234-.103.312-.749-.802.109v-.274l.791-.091-.49-.646.217-.171.429.651.301-.754.239.103-.284.766.802-.114v.28l-.763.091zM30.412 7.263a1.604 1.604 0 0 1-.239-.691l.329-.149c.025.226.097.445.212.64.124.219.287.412.479.571.198.195.452.321.724.36a.599.599 0 0 0 .524-.223.517.517 0 0 0 .128-.389 1.06 1.06 0 0 0-.134-.394 6.173 6.173 0 0 0-.34-.509 5.196 5.196 0 0 1-.401-.629 1.172 1.172 0 0 1-.145-.537c0-.212.077-.416.217-.571.121-.151.282-.264.462-.326.202-.06.416-.06.618 0 .26.087.501.227.707.411.172.146.323.315.451.503.118.174.207.367.262.571l-.317.171a2.038 2.038 0 0 0-.245-.537 2.022 2.022 0 0 0-.373-.394 1.227 1.227 0 0 0-.718-.349.585.585 0 0 0-.524.234.494.494 0 0 0-.128.389.943.943 0 0 0 .134.406c.078.131.189.303.34.509.149.195.283.401.401.617.093.164.144.348.15.537a.851.851 0 0 1-.217.571.991.991 0 0 1-.468.326 1.05 1.05 0 0 1-.618 0 2.064 2.064 0 0 1-.713-.411 2.598 2.598 0 0 1-.557-.709zM36.015 8.097l-.785-1.143.29-.211 1.81 2.651-.29.211-.785-1.143-2.907 2.086-.234-.349 2.901-2.103zM34.767 12.794c.099-.345.293-.655.557-.891.259-.238.574-.401.913-.474a1.96 1.96 0 0 1 1.047.04c.328.111.621.308.852.571.24.283.403.626.473.994.092.361.092.741 0 1.103a1.96 1.96 0 0 1-.557.891c-.266.244-.589.413-.937.491s-.711.062-1.051-.046a1.87 1.87 0 0 1-.852-.571 2.164 2.164 0 0 1-.473-.989 2.26 2.26 0 0 1 .028-1.12zm.73 1.817c.186.217.427.377.696.463.278.083.571.092.853.028s.544-.199.762-.394c.206-.194.357-.441.44-.714a1.883 1.883 0 0 0-.362-1.68 1.587 1.587 0 0 0-.718-.463 1.622 1.622 0 0 0-.858 0 1.518 1.518 0 0 0-.757.394 1.613 1.613 0 0 0-.44.72 1.75 1.75 0 0 0 0 .886c.061.284.194.546.384.76zM34.344 19.429l1.442-.571c0-.103.033-.206.061-.314l.273-1.034-1.181-.314.106-.406 3.765 1.034-.379 1.446a1.814 1.814 0 0 1-.646 1.063 1.18 1.18 0 0 1-1.058.16c-.269-.06-.51-.212-.683-.431s-.268-.492-.27-.775l-1.537.571.106-.429zm1.865.16c.065.121.154.228.26.314a.989.989 0 0 0 .76.208.993.993 0 0 0 .378-.139c.246-.203.414-.488.473-.806l.267-1.029-1.888-.52-.267 1.029c-.103.306-.097.64.017.943zM32.344 23.109l-.284-.223 1.671-2.257 3.108 2.417-1.615 2.189-.284-.223 1.364-1.846-1.114-.863-1.22 1.651-.278-.217 1.247-1.651-1.153-.897-1.442 1.92zM31.041 27.663l-.796.046v-.274l.796-.006-.429-.68.217-.143.423.686.345-.766.239.131-.379.72.796-.046v.28h-.808l.429.68-.217.143-.423-.686-.368.743-.234-.137.407-.691zM23.802 27.206l.674.383c.113-.223.271-.418.463-.574s.414-.268.651-.329a1.71 1.71 0 0 1 .685-.074c.2.016.393.087.557.206a.906.906 0 0 1 .312.457c.067.226.055.468-.033.686-.14.296-.328.564-.557.794.184.101.354.226.507.371a.993.993 0 0 1 .228.394.775.775 0 0 1-.145.669c-.149.22-.37.376-.624.44a.947.947 0 0 1-.691 0 .697.697 0 0 1-.401-.485.799.799 0 0 1 .039-.571c.128-.26.295-.497.496-.703l-1.342-.766a2.799 2.799 0 0 0-.033.817h-.34a2.803 2.803 0 0 1 .111-.994l-.702-.4.145-.32zm.969.571 1.476.84c.193-.189.354-.412.473-.657a.745.745 0 0 0 0-.514.621.621 0 0 0-.39-.429 1.09 1.09 0 0 0-.713 0c-.189.051-.365.144-.515.273s-.271.289-.354.47l.022.017zm2.094 2.286a.537.537 0 0 0 .045-.422.7.7 0 0 0-.178-.297 2.398 2.398 0 0 0-.462-.314 2.946 2.946 0 0 0-.44.571.59.59 0 0 0-.045.423c.018.065.049.126.091.178s.095.095.154.124a.607.607 0 0 0 .44 0 .661.661 0 0 0 .373-.269l.022.006zM17.013 31.611l.078-4h.395l-.061 3.2 1.582-2.663h.195l1.481 2.709.056-3.183h.395l-.072 4h-.34l-1.637-2.989-1.732 2.931-.34-.006zM15.075 27.429c.255.249.437.566.526.915s.083.717-.02 1.062a2.037 2.037 0 0 1-.529.931c-.248.25-.558.424-.897.503a2.104 2.104 0 0 1-1.08-.034 2.084 2.084 0 0 1-.936-.52 1.93 1.93 0 0 1-.518-.903c-.086-.356-.079-.729.018-1.082s.283-.673.538-.93c.243-.249.547-.427.88-.514a2.096 2.096 0 0 1 1.075.034c.354.092.678.277.941.537zm-1.899-.2a1.482 1.482 0 0 0-.718.411c-.205.21-.351.472-.423.76a1.661 1.661 0 0 0 0 .874c.066.278.207.532.406.731.21.21.469.362.752.44.283.074.58.074.863 0 .273-.069.523-.211.724-.411.204-.21.35-.473.423-.76a1.684 1.684 0 0 0 0-.88 1.614 1.614 0 0 0-1.169-1.165 1.564 1.564 0 0 0-.858 0zM8.96 24.571l.15 1.571c.095.042.188.09.278.143l.908.537.613-1.109.362.211-1.949 3.446-1.27-.749a1.796 1.796 0 0 1-.835-.914 1.284 1.284 0 0 1 .122-1.086c.129-.25.335-.451.585-.571.254-.108.535-.13.802-.063l-.162-1.68.395.263zm-.634 1.806c-.131.034-.254.094-.361.178a1.047 1.047 0 0 0-.391.698c-.016.137-.005.277.033.41.131.296.357.536.64.68l.897.531.975-1.714-.897-.531a1.354 1.354 0 0 0-.897-.28v.029zM5.663 21.891l.251-.257 1.921 2.029-2.785 2.789-1.854-1.966.256-.257 1.576 1.663.952-.989-1.381-1.474.267-.263 1.409 1.486 1.036-1.034-1.648-1.726zM1.525 19.646l.134-.789.262.04-.15.811.741-.28.089.251-.752.263.618.537-.178.206-.596-.571-.139.811-.267-.051.156-.811-.746.274-.084-.223.746-.269-.618-.531.184-.206.601.537z"/></symbol><symbol id="icon-close-mobile" viewBox="0 0 40 40"><path d="M29.667 12.88 27.787 11l-7.454 7.453L12.88 11 11 12.88l7.453 7.453L11 27.787l1.88 1.88 7.453-7.454 7.454 7.454 1.88-1.88-7.454-7.454 7.454-7.453Z" fill="#303030"/></symbol><symbol id="icon-plus" viewBox="0 0 32 32"><path fill="#ff6c00" style="fill:var(--color1,#ff6c00)" d="M13.472 17.972H2.416v-4.944h11.056V1.695h5v11.333h11.083v4.944H18.472V29.25h-5V17.972z"/></symbol><symbol id="icon-facebook" viewBox="0 0 32 32"><path d="M21.33 5.313h2.921V.225C23.747.156 22.014 0 19.995 0c-4.212 0-7.097 2.649-7.097 7.519V12H8.25v5.688h4.648V32h5.699V17.689h4.46l.708-5.688h-5.169V8.082c.001-1.644.444-2.769 2.735-2.769z"/></symbol><symbol id="icon-instagram" viewBox="0 0 32 32"><path d="M31.969 9.408c-.075-1.7-.35-2.869-.744-3.882a7.806 7.806 0 0 0-1.851-2.838A7.867 7.867 0 0 0 26.542.844C25.523.45 24.36.175 22.66.1 20.947.019 20.403 0 16.059 0s-4.888.019-6.595.094c-1.7.075-2.869.35-3.882.744a7.803 7.803 0 0 0-2.838 1.85A7.867 7.867 0 0 0 .9 5.52C.506 6.539.231 7.702.156 9.402c-.081 1.713-.1 2.257-.1 6.601s.019 4.888.094 6.595c.075 1.7.35 2.869.744 3.882a7.895 7.895 0 0 0 1.85 2.838 7.867 7.867 0 0 0 2.832 1.844c1.019.394 2.182.669 3.882.744 1.706.075 2.25.094 6.595.094s4.888-.019 6.595-.094c1.7-.075 2.869-.35 3.882-.744a8.184 8.184 0 0 0 4.682-4.682c.394-1.019.669-2.182.744-3.882.075-1.707.094-2.251.094-6.595s-.006-4.888-.081-6.595zm-2.882 13.065c-.069 1.563-.331 2.407-.55 2.969a5.31 5.31 0 0 1-3.038 3.038c-.563.219-1.413.481-2.969.55-1.688.075-2.194.094-6.464.094s-4.782-.019-6.464-.094c-1.563-.069-2.407-.331-2.969-.55a4.926 4.926 0 0 1-1.838-1.194 4.974 4.974 0 0 1-1.194-1.838c-.219-.563-.481-1.413-.55-2.969-.075-1.688-.094-2.194-.094-6.464s.019-4.782.094-6.464c.069-1.563.331-2.407.55-2.969a4.868 4.868 0 0 1 1.2-1.838A4.974 4.974 0 0 1 6.639 3.55c.563-.219 1.413-.481 2.969-.55 1.688-.075 2.194-.094 6.464-.094 4.276 0 4.782.019 6.464.094 1.563.069 2.407.331 2.969.55a4.914 4.914 0 0 1 1.838 1.194 4.974 4.974 0 0 1 1.194 1.838c.219.563.481 1.413.55 2.969.075 1.688.094 2.194.094 6.464s-.019 4.77-.094 6.458z"/><path d="M16.059 7.783c-4.538 0-8.22 3.682-8.22 8.22s3.682 8.22 8.22 8.22c4.539 0 8.22-3.682 8.22-8.22s-3.682-8.22-8.22-8.22zm0 13.552a5.333 5.333 0 0 1 0-10.664 5.333 5.333 0 0 1 0 10.664zM26.524 7.458a1.919 1.919 0 1 1-3.838 0 1.919 1.919 0 0 1 3.838 0z"/></symbol><symbol id="icon-linkedin" viewBox="0 0 32 32"><path d="M31.992 32v-.001H32V20.263c0-5.741-1.236-10.164-7.948-10.164-3.227 0-5.392 1.771-6.276 3.449h-.093v-2.913h-6.364v21.364h6.627V21.42c0-2.785.528-5.479 3.977-5.479 3.399 0 3.449 3.179 3.449 5.657v10.401h6.62zM.528 10.636h6.635V32H.528V10.636zM3.843 0C1.722 0 0 1.721 0 3.843s1.721 3.879 3.843 3.879c2.121 0 3.843-1.757 3.843-3.879A3.846 3.846 0 0 0 3.843 0z"/></symbol><symbol id="icon-mail" viewBox="0 0 32 32"><path fill="none" stroke="#9da4bd" style="stroke:var(--color2,#9da4bd)" stroke-linejoin="round" stroke-linecap="round" stroke-width="1.333" d="M6.4 6.667h19.2c1.32 0 2.4 1.05 2.4 2.333v14c0 1.283-1.08 2.333-2.4 2.333H6.4C5.08 25.333 4 24.283 4 23V9c0-1.283 1.08-2.333 2.4-2.333z"/><path fill="none" stroke="#9da4bd" style="stroke:var(--color2,#9da4bd)" stroke-linejoin="round" stroke-linecap="round" stroke-width="1.333" d="m26.667 9.333-10.667 8-10.667-8"/></symbol><symbol id="icon-map-pin" viewBox="0 0 32 32"><path fill="none" stroke="#9da4bd" style="stroke:var(--color2,#9da4bd)" stroke-linejoin="round" stroke-linecap="round" stroke-width="1.333" d="M26.667 13.818C26.667 21.454 16 28 16 28S5.333 21.455 5.333 13.818C5.333 8.396 10.109 4 16 4s10.667 4.396 10.667 9.818v0z"/><path fill="none" stroke="#9da4bd" style="stroke:var(--color2,#9da4bd)" stroke-linejoin="round" stroke-linecap="round" stroke-width="1.333" d="M16 18.667a4 4 0 1 0 0-8 4 4 0 0 0 0 8z"/></symbol><symbol id="icon-mobile-menu" viewBox="0 0 32 32"><path fill="#fff" style="fill:var(--color3,#fff)" d="M6.4 11.733V9.6h19.2v2.133H6.4zm0 5.334h19.2v-2.133H6.4v2.133zm0 5.333h19.2v-2.133H6.4V22.4z"/></symbol><symbol id="icon-phone" viewBox="0 0 32 32"><path fill="none" stroke="#9da4bd" style="stroke:var(--color2,#9da4bd)" stroke-linejoin="round" stroke-linecap="round" stroke-width="1.333" d="M26.666 21.337v3.218a2.146 2.146 0 0 1-2.338 2.145 21.239 21.239 0 0 1-9.257-3.293 20.914 20.914 0 0 1-6.436-6.436 21.221 21.221 0 0 1-3.293-9.3 2.144 2.144 0 0 1 2.134-2.338h3.218a2.144 2.144 0 0 1 2.145 1.845c.136 1.03.388 2.041.751 3.014a2.144 2.144 0 0 1-.483 2.263l-1.362 1.362a17.162 17.162 0 0 0 6.436 6.436l1.362-1.362a2.146 2.146 0 0 1 2.263-.483c.973.363 1.984.615 3.014.751a2.144 2.144 0 0 1 1.845 2.177z"/></symbol><symbol id="icon-twitter" viewBox="0 0 32 32"><path d="M32 6.078c-1.19.522-2.458.868-3.78 1.036a6.523 6.523 0 0 0 2.886-3.626 13.11 13.11 0 0 1-4.16 1.588A6.574 6.574 0 0 0 22.154 3c-3.632 0-6.556 2.948-6.556 6.562 0 .52.044 1.02.152 1.496-5.454-.266-10.28-2.88-13.522-6.862a6.605 6.605 0 0 0-.898 3.316 6.57 6.57 0 0 0 2.914 5.452 6.479 6.479 0 0 1-2.964-.808v.072c0 3.188 2.274 5.836 5.256 6.446a6.548 6.548 0 0 1-1.72.216 5.8 5.8 0 0 1-1.242-.112c.85 2.598 3.262 4.508 6.13 4.57a13.182 13.182 0 0 1-8.134 2.798c-.538 0-1.054-.024-1.57-.09A18.469 18.469 0 0 0 10.064 29c12.072 0 18.672-10 18.672-18.668 0-.29-.01-.57-.024-.848A13.087 13.087 0 0 0 32 6.078z"/></symbol><symbol id="icon-sphere" viewBox="0 0 32 32"><path d="M15 2C6.716 2 0 8.716 0 17s6.716 15 15 15c8.284 0 15-6.716 15-15S23.284 2 15 2zm8.487 20c.268-1.264.437-2.606.492-4h3.983a12.866 12.866 0 0 1-.959 4h-3.516zM6.513 12a23.855 23.855 0 0 0-.492 4H2.038c.104-1.381.426-2.722.959-4h3.516zm14.926 0c.3 1.28.481 2.62.54 4H16v-4h5.439zM16 10V4.146c.456.133.908.355 1.351.668.831.586 1.625 1.488 2.298 2.609.465.775.867 1.638 1.203 2.578H16zm-5.649-2.578c.673-1.121 1.467-2.023 2.298-2.609A4.557 4.557 0 0 1 14 4.145v5.854H9.148c.336-.94.738-1.803 1.203-2.578zM14 12v4H8.021c.059-1.38.24-2.72.54-4H14zM2.997 22a12.894 12.894 0 0 1-.959-4h3.983c.055 1.394.224 2.736.492 4H2.997zm5.024-4H14v4H8.561c-.3-1.28-.481-2.62-.54-4zM14 24v5.854a4.557 4.557 0 0 1-1.351-.668c-.831-.586-1.625-1.488-2.298-2.609a14.478 14.478 0 0 1-1.203-2.578H14zm5.649 2.578c-.673 1.121-1.467 2.023-2.298 2.609a4.581 4.581 0 0 1-1.351.668v-5.854h4.852a14.51 14.51 0 0 1-1.203 2.578zM16 22v-4h5.979c-.059 1.38-.24 2.72-.54 4H16zm7.98-6a23.855 23.855 0 0 0-.492-4h3.516c.533 1.278.855 2.619.959 4H23.98zm1.978-6h-2.997c-.582-1.836-1.387-3.447-2.354-4.732a12.974 12.974 0 0 1 3.585 2.54A13.07 13.07 0 0 1 25.958 10zM5.808 7.808a12.974 12.974 0 0 1 3.585-2.54C8.426 6.553 7.622 8.164 7.039 10H4.042a12.97 12.97 0 0 1 1.766-2.192zM4.042 24h2.997c.583 1.836 1.387 3.447 2.354 4.732a12.974 12.974 0 0 1-3.585-2.54A13.07 13.07 0 0 1 4.042 24zm20.15 2.192a12.974 12.974 0 0 1-3.585 2.54c.967-1.285 1.771-2.896 2.354-4.732h2.997a12.97 12.97 0 0 1-1.766 2.192z"/></symbol></defs></svg>