<svg aria-hidden="true" style="width:0;height:0;position:absolute;overflow:hidden" xmlns="http://www.w3.org/2000/svg"><defs><symbol id="icon-close-mobile" viewBox="0 0 40 40"><path d="M29.667 12.88 27.787 11l-7.454 7.453L12.88 11 11 12.88l7.453 7.453L11 27.787l1.88 1.88 7.453-7.454 7.454 7.454 1.88-1.88-7.454-7.454 7.454-7.453Z" fill="#303030"/></symbol><symbol id="icon-plus" viewBox="0 0 32 32"><path fill="#ff6c00" style="fill:var(--color1,#ff6c00)" d="M13.472 17.972H2.416v-4.944h11.056V1.695h5v11.333h11.083v4.944H18.472V29.25h-5V17.972z"/></symbol><symbol id="icon-facebook" viewBox="0 0 32 32"><path d="M21.33 5.313h2.921V.225C23.747.156 22.014 0 19.995 0c-4.212 0-7.097 2.649-7.097 7.519V12H8.25v5.688h4.648V32h5.699V17.689h4.46l.708-5.688h-5.169V8.082c.001-1.644.444-2.769 2.735-2.769z"/></symbol><symbol id="icon-instagram" viewBox="0 0 32 32"><path d="M31.969 9.408c-.075-1.7-.35-2.869-.744-3.882a7.806 7.806 0 0 0-1.851-2.838A7.867 7.867 0 0 0 26.542.844C25.523.45 24.36.175 22.66.1 20.947.019 20.403 0 16.059 0s-4.888.019-6.595.094c-1.7.075-2.869.35-3.882.744a7.803 7.803 0 0 0-2.838 1.85A7.867 7.867 0 0 0 .9 5.52C.506 6.539.231 7.702.156 9.402c-.081 1.713-.1 2.257-.1 6.601s.019 4.888.094 6.595c.075 1.7.35 2.869.744 3.882a7.895 7.895 0 0 0 1.85 2.838 7.867 7.867 0 0 0 2.832 1.844c1.019.394 2.182.669 3.882.744 1.706.075 2.25.094 6.595.094s4.888-.019 6.595-.094c1.7-.075 2.869-.35 3.882-.744a8.184 8.184 0 0 0 4.682-4.682c.394-1.019.669-2.182.744-3.882.075-1.707.094-2.251.094-6.595s-.006-4.888-.081-6.595zm-2.882 13.065c-.069 1.563-.331 2.407-.55 2.969a5.31 5.31 0 0 1-3.038 3.038c-.563.219-1.413.481-2.969.55-1.688.075-2.194.094-6.464.094s-4.782-.019-6.464-.094c-1.563-.069-2.407-.331-2.969-.55a4.926 4.926 0 0 1-1.838-1.194 4.974 4.974 0 0 1-1.194-1.838c-.219-.563-.481-1.413-.55-2.969-.075-1.688-.094-2.194-.094-6.464s.019-4.782.094-6.464c.069-1.563.331-2.407.55-2.969a4.868 4.868 0 0 1 1.2-1.838A4.974 4.974 0 0 1 6.639 3.55c.563-.219 1.413-.481 2.969-.55 1.688-.075 2.194-.094 6.464-.094 4.276 0 4.782.019 6.464.094 1.563.069 2.407.331 2.969.55a4.914 4.914 0 0 1 1.838 1.194 4.974 4.974 0 0 1 1.194 1.838c.219.563.481 1.413.55 2.969.075 1.688.094 2.194.094 6.464s-.019 4.77-.094 6.458z"/><path d="M16.059 7.783c-4.538 0-8.22 3.682-8.22 8.22s3.682 8.22 8.22 8.22c4.539 0 8.22-3.682 8.22-8.22s-3.682-8.22-8.22-8.22zm0 13.552a5.333 5.333 0 0 1 0-10.664 5.333 5.333 0 0 1 0 10.664zM26.524 7.458a1.919 1.919 0 1 1-3.838 0 1.919 1.919 0 0 1 3.838 0z"/></symbol><symbol id="icon-linkedin" viewBox="0 0 32 32"><path d="M31.992 32v-.001H32V20.263c0-5.741-1.236-10.164-7.948-10.164-3.227 0-5.392 1.771-6.276 3.449h-.093v-2.913h-6.364v21.364h6.627V21.42c0-2.785.528-5.479 3.977-5.479 3.399 0 3.449 3.179 3.449 5.657v10.401h6.62zM.528 10.636h6.635V32H.528V10.636zM3.843 0C1.722 0 0 1.721 0 3.843s1.721 3.879 3.843 3.879c2.121 0 3.843-1.757 3.843-3.879A3.846 3.846 0 0 0 3.843 0z"/></symbol><symbol id="icon-mail" viewBox="0 0 32 32"><path fill="none" stroke="#9da4bd" style="stroke:var(--color2,#9da4bd)" stroke-linejoin="round" stroke-linecap="round" stroke-width="1.333" d="M6.4 6.667h19.2c1.32 0 2.4 1.05 2.4 2.333v14c0 1.283-1.08 2.333-2.4 2.333H6.4C5.08 25.333 4 24.283 4 23V9c0-1.283 1.08-2.333 2.4-2.333z"/><path fill="none" stroke="#9da4bd" style="stroke:var(--color2,#9da4bd)" stroke-linejoin="round" stroke-linecap="round" stroke-width="1.333" d="m26.667 9.333-10.667 8-10.667-8"/></symbol><symbol id="icon-map-pin" viewBox="0 0 32 32"><path fill="none" stroke="#9da4bd" style="stroke:var(--color2,#9da4bd)" stroke-linejoin="round" stroke-linecap="round" stroke-width="1.333" d="M26.667 13.818C26.667 21.454 16 28 16 28S5.333 21.455 5.333 13.818C5.333 8.396 10.109 4 16 4s10.667 4.396 10.667 9.818v0z"/><path fill="none" stroke="#9da4bd" style="stroke:var(--color2,#9da4bd)" stroke-linejoin="round" stroke-linecap="round" stroke-width="1.333" d="M16 18.667a4 4 0 1 0 0-8 4 4 0 0 0 0 8z"/></symbol><symbol id="icon-mobile-menu" viewBox="0 0 32 32"><path fill="#fff" style="fill:var(--color3,#fff)" d="M6.4 11.733V9.6h19.2v2.133H6.4zm0 5.334h19.2v-2.133H6.4v2.133zm0 5.333h19.2v-2.133H6.4V22.4z"/></symbol><symbol id="icon-phone" viewBox="0 0 32 32"><path fill="none" stroke="#9da4bd" style="stroke:var(--color2,#9da4bd)" stroke-linejoin="round" stroke-linecap="round" stroke-width="1.333" d="M26.666 21.337v3.218a2.146 2.146 0 0 1-2.338 2.145 21.239 21.239 0 0 1-9.257-3.293 20.914 20.914 0 0 1-6.436-6.436 21.221 21.221 0 0 1-3.293-9.3 2.144 2.144 0 0 1 2.134-2.338h3.218a2.144 2.144 0 0 1 2.145 1.845c.136 1.03.388 2.041.751 3.014a2.144 2.144 0 0 1-.483 2.263l-1.362 1.362a17.162 17.162 0 0 0 6.436 6.436l1.362-1.362a2.146 2.146 0 0 1 2.263-.483c.973.363 1.984.615 3.014.751a2.144 2.144 0 0 1 1.845 2.177z"/></symbol><symbol id="icon-twitter" viewBox="0 0 32 32"><path d="M32 6.078c-1.19.522-2.458.868-3.78 1.036a6.523 6.523 0 0 0 2.886-3.626 13.11 13.11 0 0 1-4.16 1.588A6.574 6.574 0 0 0 22.154 3c-3.632 0-6.556 2.948-6.556 6.562 0 .52.044 1.02.152 1.496-5.454-.266-10.28-2.88-13.522-6.862a6.605 6.605 0 0 0-.898 3.316 6.57 6.57 0 0 0 2.914 5.452 6.479 6.479 0 0 1-2.964-.808v.072c0 3.188 2.274 5.836 5.256 6.446a6.548 6.548 0 0 1-1.72.216 5.8 5.8 0 0 1-1.242-.112c.85 2.598 3.262 4.508 6.13 4.57a13.182 13.182 0 0 1-8.134 2.798c-.538 0-1.054-.024-1.57-.09A18.469 18.469 0 0 0 10.064 29c12.072 0 18.672-10 18.672-18.668 0-.29-.01-.57-.024-.848A13.087 13.087 0 0 0 32 6.078z"/></symbol><symbol id="icon-sphere" viewBox="0 0 32 32"><path d="M15 2C6.716 2 0 8.716 0 17s6.716 15 15 15c8.284 0 15-6.716 15-15S23.284 2 15 2zm8.487 20c.268-1.264.437-2.606.492-4h3.983a12.866 12.866 0 0 1-.959 4h-3.516zM6.513 12a23.855 23.855 0 0 0-.492 4H2.038c.104-1.381.426-2.722.959-4h3.516zm14.926 0c.3 1.28.481 2.62.54 4H16v-4h5.439zM16 10V4.146c.456.133.908.355 1.351.668.831.586 1.625 1.488 2.298 2.609.465.775.867 1.638 1.203 2.578H16zm-5.649-2.578c.673-1.121 1.467-2.023 2.298-2.609A4.557 4.557 0 0 1 14 4.145v5.854H9.148c.336-.94.738-1.803 1.203-2.578zM14 12v4H8.021c.059-1.38.24-2.72.54-4H14zM2.997 22a12.894 12.894 0 0 1-.959-4h3.983c.055 1.394.224 2.736.492 4H2.997zm5.024-4H14v4H8.561c-.3-1.28-.481-2.62-.54-4zM14 24v5.854a4.557 4.557 0 0 1-1.351-.668c-.831-.586-1.625-1.488-2.298-2.609a14.478 14.478 0 0 1-1.203-2.578H14zm5.649 2.578c-.673 1.121-1.467 2.023-2.298 2.609a4.581 4.581 0 0 1-1.351.668v-5.854h4.852a14.51 14.51 0 0 1-1.203 2.578zM16 22v-4h5.979c-.059 1.38-.24 2.72-.54 4H16zm7.98-6a23.855 23.855 0 0 0-.492-4h3.516c.533 1.278.855 2.619.959 4H23.98zm1.978-6h-2.997c-.582-1.836-1.387-3.447-2.354-4.732a12.974 12.974 0 0 1 3.585 2.54A13.07 13.07 0 0 1 25.958 10zM5.808 7.808a12.974 12.974 0 0 1 3.585-2.54C8.426 6.553 7.622 8.164 7.039 10H4.042a12.97 12.97 0 0 1 1.766-2.192zM4.042 24h2.997c.583 1.836 1.387 3.447 2.354 4.732a12.974 12.974 0 0 1-3.585-2.54A13.07 13.07 0 0 1 4.042 24zm20.15 2.192a12.974 12.974 0 0 1-3.585 2.54c.967-1.285 1.771-2.896 2.354-4.732h2.997a12.97 12.97 0 0 1-1.766 2.192z"/></symbol></defs></svg>